<svg width="98" height="13" viewBox="0 0 98 13" fill="none" xmlns="http://www.w3.org/2000/svg">
<path d="M0.328 12V0.799999H2.92V12H0.328ZM5.578 12V0.799999H7.722L14.33 8.864H13.29V0.799999H15.85V12H13.722L7.098 3.936H8.138V12H5.578ZM18.4999 12V0.799999H20.6439L27.2519 8.864H26.2119V0.799999H28.7719V12H26.6439L20.0199 3.936H21.0599V12H18.4999ZM36.8618 12.192C35.9764 12.192 35.1551 12.048 34.3978 11.76C33.6511 11.472 33.0004 11.0667 32.4457 10.544C31.9018 10.0213 31.4751 9.408 31.1658 8.704C30.8671 8 30.7178 7.232 30.7178 6.4C30.7178 5.568 30.8671 4.8 31.1658 4.096C31.4751 3.392 31.9071 2.77867 32.4618 2.256C33.0164 1.73333 33.6671 1.328 34.4138 1.04C35.1604 0.752 35.9711 0.608 36.8458 0.608C37.7311 0.608 38.5417 0.752 39.2778 1.04C40.0244 1.328 40.6698 1.73333 41.2138 2.256C41.7684 2.77867 42.2004 3.392 42.5098 4.096C42.8191 4.78933 42.9738 5.55733 42.9738 6.4C42.9738 7.232 42.8191 8.00533 42.5098 8.72C42.2004 9.424 41.7684 10.0373 41.2138 10.56C40.6698 11.072 40.0244 11.472 39.2778 11.76C38.5417 12.048 37.7364 12.192 36.8618 12.192ZM36.8458 9.984C37.3471 9.984 37.8058 9.89867 38.2218 9.728C38.6484 9.55733 39.0218 9.312 39.3418 8.992C39.6618 8.672 39.9071 8.29333 40.0778 7.856C40.2591 7.41867 40.3498 6.93333 40.3498 6.4C40.3498 5.86667 40.2591 5.38133 40.0778 4.944C39.9071 4.50667 39.6618 4.128 39.3418 3.808C39.0324 3.488 38.6644 3.24267 38.2378 3.072C37.8111 2.90133 37.3471 2.816 36.8458 2.816C36.3444 2.816 35.8804 2.90133 35.4538 3.072C35.0378 3.24267 34.6698 3.488 34.3498 3.808C34.0298 4.128 33.7791 4.50667 33.5978 4.944C33.4271 5.38133 33.3418 5.86667 33.3418 6.4C33.3418 6.92267 33.4271 7.408 33.5978 7.856C33.7791 8.29333 34.0244 8.672 34.3338 8.992C34.6538 9.312 35.0271 9.55733 35.4538 9.728C35.8804 9.89867 36.3444 9.984 36.8458 9.984ZM44.9218 12V0.799999H47.0658L51.8338 8.704H50.6978L55.3858 0.799999H57.5138L57.5458 12H55.1138L55.0978 4.528H55.5458L51.8018 10.816H50.6338L46.8098 4.528H47.3538V12H44.9218ZM58.731 12L63.723 0.799999H66.283L71.291 12H68.571L64.475 2.112H65.499L61.387 12H58.731ZM61.227 9.6L61.915 7.632H67.675L68.379 9.6H61.227Z" fill="white"/>
<path d="M73.221 12.128C72.7943 12.128 72.4263 11.984 72.117 11.696C71.8183 11.3973 71.669 11.0187 71.669 10.56C71.669 10.1013 71.8183 9.73333 72.117 9.456C72.4263 9.168 72.7943 9.024 73.221 9.024C73.6583 9.024 74.0263 9.168 74.325 9.456C74.6237 9.73333 74.773 10.1013 74.773 10.56C74.773 11.0187 74.6237 11.3973 74.325 11.696C74.0263 11.984 73.6583 12.128 73.221 12.128ZM79.3911 12L74.5591 0.799999H77.3591L81.5831 10.72H79.9351L84.2231 0.799999H86.7991L81.9511 12H79.3911ZM92.9693 12.192C92.1053 12.192 91.2999 12.0533 90.5533 11.776C89.8173 11.488 89.1773 11.0827 88.6332 10.56C88.0893 10.0373 87.6626 9.424 87.3533 8.72C87.0546 8.016 86.9053 7.24267 86.9053 6.4C86.9053 5.55733 87.0546 4.784 87.3533 4.08C87.6626 3.376 88.0893 2.76267 88.6332 2.24C89.1879 1.71733 89.8333 1.31733 90.5693 1.04C91.3053 0.752 92.1106 0.608 92.9853 0.608C93.9559 0.608 94.8306 0.778666 95.6093 1.12C96.3986 1.45067 97.0599 1.94133 97.5933 2.592L95.9293 4.128C95.5453 3.69067 95.1186 3.36533 94.6493 3.152C94.1799 2.928 93.6679 2.816 93.1133 2.816C92.5906 2.816 92.1106 2.90133 91.6733 3.072C91.2359 3.24267 90.8573 3.488 90.5373 3.808C90.2173 4.128 89.9666 4.50667 89.7853 4.944C89.6146 5.38133 89.5293 5.86667 89.5293 6.4C89.5293 6.93333 89.6146 7.41867 89.7853 7.856C89.9666 8.29333 90.2173 8.672 90.5373 8.992C90.8573 9.312 91.2359 9.55733 91.6733 9.728C92.1106 9.89867 92.5906 9.984 93.1133 9.984C93.6679 9.984 94.1799 9.87733 94.6493 9.664C95.1186 9.44 95.5453 9.104 95.9293 8.656L97.5933 10.192C97.0599 10.8427 96.3986 11.3387 95.6093 11.68C94.8306 12.0213 93.9506 12.192 92.9693 12.192Z" fill="#00B1E9"/>
</svg>
